<!--
Add to HTML Code
<svg>
    <use xlink:href="./img/sprites.svg#icon-target"></use>
</svg>
-->
<svg>
    <symbol id="logo" xmlns="http://www.w3.org/2000/svg" viewBox="0 0 102 36">
        <path fill="currentColor"
              d="M1.72 27V9.55H12.9v2.65H4.88v4.73h7.26v2.66H4.88V27zm18.28.26a7 7 0 0 1-3.4-.82 5.5 5.5 0 0 1-2.19-2.34 8 8 0 0 1-.77-3.57q0-2.03.77-3.54a5.8 5.8 0 0 1 5.43-3.25q1.2 0 2.28.4 1.09.37 1.91 1.18.84.81 1.32 2.07.47 1.24.47 2.96v.95H15.1v-2.08h7.78q-.01-.9-.39-1.58-.37-.7-1.05-1.1-.66-.4-1.55-.4a3 3 0 0 0-1.66.46q-.72.45-1.12 1.2-.39.73-.4 1.6v1.82q0 1.14.42 1.96.42.81 1.17 1.25.75.42 1.75.42.68 0 1.22-.19.55-.2.95-.57t.6-.93l2.89.33a4.5 4.5 0 0 1-1.04 2q-.77.84-1.95 1.3-1.2.47-2.7.47M30.2 13.9l2.64 4.83 2.68-4.83h3.27l-3.95 6.54L38.85 27h-3.24l-2.77-4.71L30.09 27h-3.27l3.99-6.55-3.89-6.54z"/>
        <path fill="#0378ff"
              d="M53.2 14.34a2.3 2.3 0 0 0-1-1.73 4 4 0 0 0-2.28-.63q-1 0-1.7.3t-1.08.81A2 2 0 0 0 47 15.2q.25.4.7.69.42.27.96.46.52.19 1.06.31l1.64.41q1 .23 1.9.62.92.4 1.64 1 .74.59 1.16 1.43.43.84.43 1.98a4.7 4.7 0 0 1-3.05 4.52q-1.48.64-3.57.64a9 9 0 0 1-3.54-.63 5.3 5.3 0 0 1-2.34-1.84 5.5 5.5 0 0 1-.9-2.95h3.11q.07.92.56 1.52t1.3.9 1.78.3q1.04 0 1.8-.3.8-.32 1.23-.87.45-.57.46-1.32 0-.68-.4-1.12t-1.1-.75-1.64-.55l-1.99-.5a8 8 0 0 1-3.4-1.69 3.9 3.9 0 0 1-1.25-3q0-1.55.84-2.7a5.5 5.5 0 0 1 2.29-1.8 8 8 0 0 1 3.28-.65q1.86 0 3.26.64a5.3 5.3 0 0 1 2.2 1.79q.8 1.13.83 2.6zm5.63-4.8h3.87l5.18 12.65h.2l5.19-12.64h3.86V27H74.1V15h-.16L69.1 26.96h-2.26l-4.83-11.97h-.16V27h-3.03zm21.27 0h3.87l5.18 12.65h.2l5.19-12.64h3.86V27h-3.03V15h-.16l-4.83 11.95h-2.26l-4.83-11.97h-.16V27H80.1z"/>
    </symbol>

    <symbol id="icon-arrow" xmlns="http://www.w3.org/2000/svg" viewBox="0 0 20 20">
        <path d="M17 6c.55.55.55 1.45 0 2l-5.59 5.59a2 2 0 0 1-2.82 0L3 8a1.41 1.41 0 0 1 2-2l3.59 3.59a2 2 0 0 0 2.82 0L15 6a1.4 1.4 0 0 1 2 0"/>
    </symbol>
    <symbol id="icon-arrow-right" xmlns="http://www.w3.org/2000/svg" viewBox="0 0 19 13">
        <path d="M18.24 7.11a.9.9 0 0 0 0-1.25l-5.6-5.6a.88.88 0 1 0-1.25 1.24l4.98 4.99-4.98 4.98a.88.88 0 1 0 1.25 1.25zM0 6.49v.88h17.62V5.6H0z"/>
    </symbol>
    <symbol id="icon-arrow-left" xmlns="http://www.w3.org/2000/svg" viewBox="0 0 19 13">
        <path d="M.26 5.86a.9.9 0 0 0 0 1.25l5.6 5.6a.88.88 0 0 0 1.25-1.24L2.13 6.5 7.1 1.5A.88.88 0 0 0 5.86.26zm18.24.63V5.6H.88v1.76H18.5z"/>
    </symbol>

    <symbol id="icon-close" xmlns="http://www.w3.org/2000/svg" viewBox="0 0 16 16">
        <path d="M0 .64.64 0l15.33 15.36-.64.64L0 .64Z"/>
        <path d="m.67 16-.64-.64L15.36 0l.64.64L.67 16Z"/>
    </symbol>
    <symbol id="icon-burger" xmlns="http://www.w3.org/2000/svg" viewBox="0 0 22 22">
        <path d="M19.56 17.72H2.44a.61.61 0 0 1 0-1.22h17.12a.61.61 0 0 1 0 1.22M19.56 11.61H2.44a.61.61 0 0 1 0-1.22h17.12a.61.61 0 0 1 0 1.22M19.56 5.5H2.44a.61.61 0 1 1 0-1.22h17.12a.61.61 0 1 1 0 1.22"/>
    </symbol>
    <symbol id="icon-more" xmlns="http://www.w3.org/2000/svg" viewBox="0 0 28 28">
        <circle cx="5" cy="14" r="2" fill="#2f2f30" transform="rotate(90 5 14)"/>
        <circle cx="14" cy="14" r="2" fill="#2f2f30" transform="rotate(90 14 14)"/>
        <circle cx="23" cy="14" r="2" fill="#2f2f30" transform="rotate(90 23 14)"/>
    </symbol>
    <symbol id="icon-play" xmlns="http://www.w3.org/2000/svg" viewBox="0 0 46 53">
        <path fill="#fff" d="M45.18 26.09 0 52.17V0z"/>
    </symbol>
    <symbol id="icon-time" xmlns="http://www.w3.org/2000/svg" viewBox="0 0 16 16">
        <path d="M7.66666 2c1.67971 0 3.29064.66726 4.47834 1.85499S14 6.65363 14 8.33333c0 1.67967-.6673 3.29057-1.855 4.47837-1.1877 1.1877-2.79863 1.855-4.47834 1.855-1.6797 0-3.29061-.6673-4.47834-1.855-1.18773-1.1878-1.85499-2.7987-1.85499-4.47837 0-1.6797.66726-3.29061 1.85499-4.47834S5.98696 2 7.66666 2m0 .66667a5.66667 5.66667 0 0 0-5.66667 5.66666 5.6668 5.6668 0 0 0 1.65973 4.00697A5.6667 5.6667 0 0 0 7.66666 14a5.668 5.668 0 0 0 2.16854-.4313 5.667 5.667 0 0 0 1.8384-1.2284 5.667 5.667 0 0 0 1.2284-1.8384 5.666 5.666 0 0 0 .4313-2.16857 5.66663 5.66663 0 0 0-5.66664-5.66666m-.33333 2H8V8.28l3.1333 1.8067-.3333.58-3.46667-2.00003z"/>
    </symbol>
    <symbol id="icon-add" xmlns="http://www.w3.org/2000/svg" viewBox="0 0 11 11">
        <path d="M4.28 10.67V6.33H0v-2h4.28V0h2.1v4.33h4.29v2h-4.3v4.34z"/>
    </symbol>
    <symbol id="icon-remove" xmlns="http://www.w3.org/2000/svg" viewBox="0 0 11 2">
        <path d="M0 2h10.67V0H0z"/>
    </symbol>
    <symbol id="icon-notifications" fill="none" xmlns="http://www.w3.org/2000/svg" viewBox="0 0 22 22">
        <path stroke="currentColor" stroke-linecap="round" stroke-linejoin="round" stroke-width="1.38"
              d="M13.75 16.5v.69a2.75 2.75 0 1 1-5.5 0v-.69m10.13-1.4c-1.1-1.35-1.89-2.04-1.89-5.76 0-3.41-1.74-4.63-3.17-5.21a.8.8 0 0 1-.43-.46c-.25-.85-.95-1.6-1.89-1.6s-1.64.75-1.9 1.6a.8.8 0 0 1-.42.46c-1.43.59-3.17 1.8-3.17 5.2 0 3.73-.78 4.42-1.89 5.77-.45.56-.05 1.4.75 1.4h13.27c.8 0 1.2-.84.74-1.4"/>
    </symbol>
    <symbol id="icon-user" xmlns="http://www.w3.org/2000/svg" viewBox="0 0 22 22">
        <path d="M11 1.15a4.35 4.35 0 1 0 0 8.7 4.35 4.35 0 0 0 0-8.7M8.02 5.5a2.98 2.98 0 1 1 5.96 0 2.98 2.98 0 0 1-5.96 0M11 11.23c-2.12 0-4.07.48-5.52 1.3-1.43.8-2.5 2.01-2.5 3.51v.1c0 1.06 0 2.4 1.17 3.35q.85.7 2.47 1.03c1.1.22 2.52.33 4.38.33s3.28-.11 4.38-.33q1.63-.33 2.47-1.03c1.17-.95 1.17-2.29 1.17-3.35v-.1c0-1.5-1.07-2.71-2.5-3.51-1.45-.82-3.4-1.3-5.52-1.3m-6.65 4.81c0-.78.57-1.63 1.8-2.32A10 10 0 0 1 11 12.6c1.93 0 3.64.45 4.85 1.12 1.23.7 1.8 1.54 1.8 2.32 0 1.2-.04 1.88-.67 2.39-.34.27-.9.54-1.88.74s-2.3.3-4.1.3c-1.81 0-3.14-.1-4.1-.3a4 4 0 0 1-1.88-.74c-.63-.51-.67-1.19-.67-2.39"/>
    </symbol>
    <symbol id="icon-wallet" xmlns="http://www.w3.org/2000/svg" viewBox="0 0 28 28">
        <path d="M22.17 14a1.17 1.17 0 1 1-2.34 0 1.17 1.17 0 0 1 2.34 0"/>
        <path d="M11.6 3.8h3.63c2.15 0 3.84 0 5.17.17a5.5 5.5 0 0 1 3.35 1.44c1.08 1.08 1.42 2.53 1.55 4.4.67.3 1.18.92 1.24 1.72v4.94c-.06.8-.57 1.42-1.24 1.72-.13 1.87-.47 3.32-1.55 4.4a5.5 5.5 0 0 1-3.35 1.44c-1.33.18-3.02.18-5.17.18H11.6c-2.14 0-3.84 0-5.17-.18a5.5 5.5 0 0 1-3.35-1.44 5.5 5.5 0 0 1-1.44-3.35c-.18-1.33-.18-3.03-.18-5.17v-.14c0-2.14 0-3.84.18-5.17a5.5 5.5 0 0 1 1.44-3.35 5.5 5.5 0 0 1 3.35-1.44c1.33-.18 3.03-.18 5.17-.18m11.93 14.58h-2.26c-2.5 0-4.65-1.9-4.65-4.38s2.15-4.37 4.65-4.37h2.26c-.13-1.57-.43-2.4-1.02-2.98-.49-.5-1.17-.79-2.34-.95-1.2-.16-2.78-.16-5-.16h-3.5c-2.23 0-3.8 0-5.01.17-1.17.15-1.85.45-2.34.94-.5.5-.8 1.17-.95 2.34-.16 1.2-.16 2.78-.16 5s0 3.81.16 5.01c.16 1.18.46 1.85.95 2.35.5.49 1.17.79 2.34.94 1.2.16 2.78.17 5 .17h3.5c2.23 0 3.81 0 5.01-.17 1.17-.15 1.85-.45 2.34-.94.59-.58.89-1.41 1.02-2.98M6.13 9.33A.87.87 0 0 1 7 8.46h4.67a.87.87 0 1 1 0 1.75H7a.9.9 0 0 1-.88-.88m18.28 2.05h-3.14c-1.66 0-2.9 1.23-2.9 2.62s1.24 2.63 2.9 2.63h3.17c.24-.02.34-.18.35-.28v-4.7c0-.1-.11-.26-.35-.27z"/>
    </symbol>
    <symbol id="icon-check" fill="none" viewBox="0 0 11 11" xmlns="http://www.w3.org/2000/svg">
        <path d="M9.00005 2.70001L4.05005 7.65001L1.80005 5.40001" stroke="currentColor" stroke-width="1.8"
              stroke-linecap="round" stroke-linejoin="round"/>
    </symbol>
    <symbol id="icon-services-sub-1" xmlns="http://www.w3.org/2000/svg" viewBox="0 0 40 40">
        <path d="M9 13.5a4.5 4.5 0 1 1 9 0 4.5 4.5 0 0 1-9 0M13.5 7a6.5 6.5 0 1 0 0 13 6.5 6.5 0 0 0 0-13m11.37 23.29c1.08.44 2.43.71 4.13.71 3.76 0 5.84-1.34 6.94-2.87a6 6 0 0 0 1.06-3V25a3 3 0 0 0-3-3h-9.26q.73.88 1.05 2H34a1 1 0 0 1 1 1v.1l-.01.1a4 4 0 0 1-.68 1.77C33.66 27.89 32.24 29 29 29a9 9 0 0 1-3.37-.56q-.24.85-.76 1.85M3 26a4 4 0 0 1 4-4h13a4 4 0 0 1 4 4v.25l-.02.27a8 8 0 0 1-1.34 3.61C21.24 32.16 18.53 34 13.5 34s-7.73-1.84-9.14-3.87A8 8 0 0 1 3 26.17zm2 .12v.04l.01.16c.11.96.45 1.88 1 2.67C6.98 30.4 9.03 32 13.5 32s6.52-1.6 7.49-3a6 6 0 0 0 1-2.84l.01-.04V26a2 2 0 0 0-2-2H7a2 2 0 0 0-2 2zM26 15a3 3 0 1 1 6 0 3 3 0 0 1-6 0m3-5a5 5 0 1 0 0 10 5 5 0 0 0 0-10"/>
    </symbol>
    <symbol id="icon-services-sub-2" xmlns="http://www.w3.org/2000/svg" fill="none" viewBox="0 0 40 40">
        <path stroke="currentColor" stroke-linecap="round" stroke-linejoin="round" stroke-width="2.5" d="M5 21.67c6-13.34 24-13.34 30 0"/>
        <path stroke="currentColor" stroke-linecap="round" stroke-linejoin="round" stroke-width="2.5" d="M20 28.33a5 5 0 1 1 0-10 5 5 0 0 1 0 10"/>
    </symbol>
    <symbol id="icon-services-sub-3" xmlns="http://www.w3.org/2000/svg" viewBox="0 0 40 40">
        <path fill-rule="evenodd" d="M32.14 21.08a6.33 6.33 0 1 0-9.03-8.9q-.47.49-1.22 1.19l-1.37 1.29-1.37-1.3-1.22-1.17a6.33 6.33 0 0 0-9.05 8.87L20.52 32.7zM7.56 10.77a8.33 8.33 0 0 1 11.78 0l1.18 1.13q.73-.67 1.18-1.14a8.33 8.33 0 1 1 11.88 11.7L21.7 34.35a1.67 1.67 0 0 1-2.36 0L7.47 22.46a8.33 8.33 0 0 1 .09-11.7" clip-rule="evenodd"/>
    </symbol>
    <symbol id="icon-services-sub-4" xmlns="http://www.w3.org/2000/svg" viewBox="0 0 40 40">
        <path d="M12 33.6h-1.6l.96-1.28c.64-.88 1.04-2 1.28-3.36-4-1.84-6.24-5.28-6.24-9.76C6.4 12.32 11.6 8 20 8s13.6 4.32 13.6 11.2c0 7.04-5.12 11.2-13.6 11.2h-.56c-1.28 1.52-3.52 3.2-7.44 3.2m8-24c-7.52 0-12 3.6-12 9.6 0 5.12 3.12 7.52 5.76 8.56l.56.24-.08.64c-.16 1.28-.4 2.4-.88 3.36a7.3 7.3 0 0 0 5.04-2.8l.24-.32H20c10.8 0 12-6.72 12-9.6 0-6.08-4.48-9.68-12-9.68"/>
    </symbol>
    <symbol id="icon-services-sub-5" xmlns="http://www.w3.org/2000/svg" fill="none" viewBox="0 0 40 40">
        <path stroke="currentColor" stroke-linecap="round" stroke-linejoin="round" stroke-miterlimit="5.76" stroke-width="3.33" d="M5 5v26.67A3.33 3.33 0 0 0 8.33 35H35"/>
        <path stroke="currentColor" stroke-linecap="round" stroke-linejoin="round" stroke-miterlimit="5.76" stroke-width="3.33" d="m11.67 23.33 6.66-6.66L25 23.33l10-10"/>
        <path stroke="currentColor" stroke-linecap="round" stroke-linejoin="round" stroke-width="3.33" d="M30 13.33h5v5"/>
    </symbol>
</svg>
