<svg xmlns="http://www.w3.org/2000/svg" fill="none" viewBox="0 0 98 18"><path fill="#b1b1b1" fill-rule="evenodd" d="m9 14.06-3.94 2.07a.75.75 0 0 1-1.1-.8l.76-4.38-3.2-3.11a.75.75 0 0 1 .42-1.28l4.41-.65 1.98-4a.75.75 0 0 1 1.34 0l1.98 4 4.4.65a.75.75 0 0 1 .42 1.28l-3.19 3.1.75 4.4a.75.75 0 0 1-1.08.79zM29 14.06l-3.94 2.07a.75.75 0 0 1-1.1-.8l.76-4.38-3.2-3.11a.75.75 0 0 1 .42-1.28l4.41-.65 1.98-4a.75.75 0 0 1 1.34 0l1.98 4 4.4.65a.75.75 0 0 1 .42 1.28l-3.19 3.1.75 4.4a.75.75 0 0 1-1.09.79zM49 14.06l-3.94 2.07a.75.75 0 0 1-1.1-.8l.76-4.38-3.2-3.11a.75.75 0 0 1 .42-1.28l4.41-.65 1.98-4a.75.75 0 0 1 1.34 0l1.98 4 4.4.65a.75.75 0 0 1 .42 1.28l-3.19 3.1.75 4.4a.75.75 0 0 1-1.09.79zM69 14.06l-3.94 2.07a.75.75 0 0 1-1.1-.8l.76-4.38-3.2-3.11a.75.75 0 0 1 .42-1.28l4.41-.65 1.98-4a.75.75 0 0 1 1.34 0l1.98 4 4.4.65a.75.75 0 0 1 .42 1.28l-3.19 3.1.75 4.4a.75.75 0 0 1-1.09.79zM89 14.06l-3.94 2.07a.75.75 0 0 1-1.1-.8l.76-4.38-3.2-3.11a.75.75 0 0 1 .42-1.28l4.41-.65 1.98-4a.75.75 0 0 1 1.34 0l1.98 4 4.4.65a.75.75 0 0 1 .42 1.28l-3.19 3.1.75 4.4a.75.75 0 0 1-1.09.79z" clip-rule="evenodd"/></svg>